<?xml version="1.0" encoding="UTF-8"?>
<svg xmlns="http://www.w3.org/2000/svg" xmlns:xlink="http://www.w3.org/1999/xlink" width="48pt" height="47pt" viewBox="0 0 48 47" version="1.1">
<defs>
<linearGradient id="linear0" gradientUnits="userSpaceOnUse" x1="136.178" y1="369.638" x2="372.681" y2="287.81" gradientTransform="matrix(0.107412,0,0,0.105216,-2.852921,-2.798746)">
<stop offset="0.233" style="stop-color:rgb(97.254902%,59.607843%,13.333333%);stop-opacity:1;"/>
<stop offset="1" style="stop-color:rgb(76.078431%,47.058824%,9.411765%);stop-opacity:1;"/>
</linearGradient>
</defs>
<g id="surface1">
<path style=" stroke:none;fill-rule:nonzero;fill:rgb(30.196078%,30.196078%,30.588235%);fill-opacity:1;" d="M 46.136719 47 L 1.863281 47 C 0.84375 47 0.00390625 46.179688 0.00390625 45.179688 L 0.00390625 1.820312 C 0.00390625 0.820312 0.84375 0 1.863281 0 L 46.136719 0 C 47.15625 0 47.996094 0.820312 47.996094 1.820312 L 47.996094 45.191406 C 47.984375 46.191406 47.15625 47 46.136719 47 Z M 46.136719 47 "/>
<path style=" stroke:none;fill-rule:nonzero;fill:rgb(97.254902%,59.607843%,12.54902%);fill-opacity:1;" d="M 11.066406 14.195312 L 36.179688 6.386719 C 36.179688 6.386719 37.964844 5.472656 37.535156 7.164062 L 37.597656 14.6875 C 37.597656 14.6875 37.910156 15.792969 36.363281 16.066406 L 26.160156 19.191406 Z M 11.066406 14.195312 "/>
<path style=" stroke:none;fill-rule:nonzero;fill:rgb(97.254902%,59.607843%,12.54902%);fill-opacity:1;" d="M 11.066406 14.195312 C 11.066406 14.195312 10.078125 14.425781 10.371094 16.078125 L 10.316406 23.328125 C 10.316406 23.328125 10.230469 24.242188 12.003906 24.609375 L 36.890625 32.460938 C 36.890625 32.460938 37.726562 32.785156 37.628906 31.773438 L 37.640625 23.695312 C 37.640625 23.695312 37.878906 22.863281 36.332031 22.316406 L 26.160156 19.191406 Z M 11.066406 14.195312 "/>
<path style=" stroke:none;fill-rule:nonzero;fill:url(#linear0);" d="M 22.035156 27.765625 L 11.445312 30.933594 C 11.445312 30.933594 10.164062 30.976562 10.316406 33.320312 C 10.464844 35.667969 10.304688 40.390625 10.304688 40.390625 C 10.304688 40.390625 10.414062 41.265625 11.636719 40.761719 L 36.75 32.910156 C 36.75 32.910156 37.640625 32.691406 36.890625 32.449219 C 36.136719 32.21875 22.035156 27.765625 22.035156 27.765625 Z M 22.035156 27.765625 "/>
</g>
</svg>
